<mxfile host="Electron" agent="Mozilla/5.0 (Windows NT 10.0; Win64; x64) AppleWebKit/537.36 (KHTML, like Gecko) draw.io/26.0.16 Chrome/132.0.6834.196 Electron/34.2.0 Safari/537.36" version="26.0.16">
  <diagram name="Page-1" id="g_IKMwccLGqk3EL5zii0">
    <mxGraphModel dx="3294" dy="1642" grid="0" gridSize="10" guides="1" tooltips="1" connect="1" arrows="1" fold="1" page="0" pageScale="1" pageWidth="827" pageHeight="1169" math="0" shadow="0">
      <root>
        <mxCell id="0" />
        <mxCell id="1" parent="0" />
        <mxCell id="Dkcpus8MpAZ2_VXcNwwd-5" value="Joueur" style="swimlane;fontStyle=1;align=center;verticalAlign=top;childLayout=stackLayout;horizontal=1;startSize=26;horizontalStack=0;resizeParent=1;resizeParentMax=0;resizeLast=0;collapsible=1;marginBottom=0;whiteSpace=wrap;html=1;" parent="1" vertex="1">
          <mxGeometry x="-44" y="29" width="160" height="225" as="geometry" />
        </mxCell>
        <mxCell id="Dkcpus8MpAZ2_VXcNwwd-10" value="+ nom : string&lt;div&gt;&lt;br&gt;&lt;/div&gt;" style="text;strokeColor=none;fillColor=none;align=left;verticalAlign=top;spacingLeft=4;spacingRight=4;overflow=hidden;rotatable=0;points=[[0,0.5],[1,0.5]];portConstraint=eastwest;whiteSpace=wrap;html=1;" parent="Dkcpus8MpAZ2_VXcNwwd-5" vertex="1">
          <mxGeometry y="26" width="160" height="26" as="geometry" />
        </mxCell>
        <mxCell id="Dkcpus8MpAZ2_VXcNwwd-11" value="&lt;div&gt;+ or : int&lt;/div&gt;" style="text;strokeColor=none;fillColor=none;align=left;verticalAlign=top;spacingLeft=4;spacingRight=4;overflow=hidden;rotatable=0;points=[[0,0.5],[1,0.5]];portConstraint=eastwest;whiteSpace=wrap;html=1;" parent="Dkcpus8MpAZ2_VXcNwwd-5" vertex="1">
          <mxGeometry y="52" width="160" height="26" as="geometry" />
        </mxCell>
        <mxCell id="Dkcpus8MpAZ2_VXcNwwd-6" value="&lt;div&gt;+ vies : int&lt;/div&gt;" style="text;strokeColor=none;fillColor=none;align=left;verticalAlign=top;spacingLeft=4;spacingRight=4;overflow=hidden;rotatable=0;points=[[0,0.5],[1,0.5]];portConstraint=eastwest;whiteSpace=wrap;html=1;" parent="Dkcpus8MpAZ2_VXcNwwd-5" vertex="1">
          <mxGeometry y="78" width="160" height="26" as="geometry" />
        </mxCell>
        <mxCell id="Dkcpus8MpAZ2_VXcNwwd-7" value="" style="line;strokeWidth=1;fillColor=none;align=left;verticalAlign=middle;spacingTop=-1;spacingLeft=3;spacingRight=3;rotatable=0;labelPosition=right;points=[];portConstraint=eastwest;strokeColor=inherit;" parent="Dkcpus8MpAZ2_VXcNwwd-5" vertex="1">
          <mxGeometry y="104" width="160" height="8" as="geometry" />
        </mxCell>
        <mxCell id="Dkcpus8MpAZ2_VXcNwwd-8" value="+ construireTour(type: String, position: Position)&lt;div&gt;&lt;br&gt;&lt;/div&gt;" style="text;strokeColor=none;fillColor=none;align=left;verticalAlign=top;spacingLeft=4;spacingRight=4;overflow=hidden;rotatable=0;points=[[0,0.5],[1,0.5]];portConstraint=eastwest;whiteSpace=wrap;html=1;" parent="Dkcpus8MpAZ2_VXcNwwd-5" vertex="1">
          <mxGeometry y="112" width="160" height="40" as="geometry" />
        </mxCell>
        <mxCell id="Dkcpus8MpAZ2_VXcNwwd-13" value="&lt;div&gt;+ ameliorerTour(tour: Tour)&lt;/div&gt;" style="text;strokeColor=none;fillColor=none;align=left;verticalAlign=top;spacingLeft=4;spacingRight=4;overflow=hidden;rotatable=0;points=[[0,0.5],[1,0.5]];portConstraint=eastwest;whiteSpace=wrap;html=1;" parent="Dkcpus8MpAZ2_VXcNwwd-5" vertex="1">
          <mxGeometry y="152" width="160" height="28" as="geometry" />
        </mxCell>
        <mxCell id="Dkcpus8MpAZ2_VXcNwwd-14" value="&lt;div&gt;+ perdreVie()&lt;/div&gt;" style="text;strokeColor=none;fillColor=none;align=left;verticalAlign=top;spacingLeft=4;spacingRight=4;overflow=hidden;rotatable=0;points=[[0,0.5],[1,0.5]];portConstraint=eastwest;whiteSpace=wrap;html=1;" parent="Dkcpus8MpAZ2_VXcNwwd-5" vertex="1">
          <mxGeometry y="180" width="160" height="45" as="geometry" />
        </mxCell>
        <mxCell id="Dkcpus8MpAZ2_VXcNwwd-27" value="Monstre" style="swimlane;fontStyle=1;align=center;verticalAlign=top;childLayout=stackLayout;horizontal=1;startSize=26;horizontalStack=0;resizeParent=1;resizeParentMax=0;resizeLast=0;collapsible=1;marginBottom=0;whiteSpace=wrap;html=1;" parent="1" vertex="1">
          <mxGeometry x="661" y="235" width="160" height="218" as="geometry" />
        </mxCell>
        <mxCell id="Dkcpus8MpAZ2_VXcNwwd-28" value="&lt;div&gt;+ type : String&lt;/div&gt;" style="text;strokeColor=none;fillColor=none;align=left;verticalAlign=top;spacingLeft=4;spacingRight=4;overflow=hidden;rotatable=0;points=[[0,0.5],[1,0.5]];portConstraint=eastwest;whiteSpace=wrap;html=1;" parent="Dkcpus8MpAZ2_VXcNwwd-27" vertex="1">
          <mxGeometry y="26" width="160" height="26" as="geometry" />
        </mxCell>
        <mxCell id="Dkcpus8MpAZ2_VXcNwwd-29" value="&lt;div&gt;+&amp;nbsp;pointsDeVie : int&lt;/div&gt;" style="text;strokeColor=none;fillColor=none;align=left;verticalAlign=top;spacingLeft=4;spacingRight=4;overflow=hidden;rotatable=0;points=[[0,0.5],[1,0.5]];portConstraint=eastwest;whiteSpace=wrap;html=1;" parent="Dkcpus8MpAZ2_VXcNwwd-27" vertex="1">
          <mxGeometry y="52" width="160" height="26" as="geometry" />
        </mxCell>
        <mxCell id="Dkcpus8MpAZ2_VXcNwwd-30" value="&lt;div&gt;+&amp;nbsp;vitesse : int&lt;/div&gt;" style="text;strokeColor=none;fillColor=none;align=left;verticalAlign=top;spacingLeft=4;spacingRight=4;overflow=hidden;rotatable=0;points=[[0,0.5],[1,0.5]];portConstraint=eastwest;whiteSpace=wrap;html=1;" parent="Dkcpus8MpAZ2_VXcNwwd-27" vertex="1">
          <mxGeometry y="78" width="160" height="26" as="geometry" />
        </mxCell>
        <mxCell id="Dkcpus8MpAZ2_VXcNwwd-31" value="&lt;div&gt;+&amp;nbsp;position : Position&lt;/div&gt;" style="text;strokeColor=none;fillColor=none;align=left;verticalAlign=top;spacingLeft=4;spacingRight=4;overflow=hidden;rotatable=0;points=[[0,0.5],[1,0.5]];portConstraint=eastwest;whiteSpace=wrap;html=1;" parent="Dkcpus8MpAZ2_VXcNwwd-27" vertex="1">
          <mxGeometry y="104" width="160" height="26" as="geometry" />
        </mxCell>
        <mxCell id="Dkcpus8MpAZ2_VXcNwwd-32" value="&lt;div&gt;+&amp;nbsp;recompense : int&lt;/div&gt;" style="text;strokeColor=none;fillColor=none;align=left;verticalAlign=top;spacingLeft=4;spacingRight=4;overflow=hidden;rotatable=0;points=[[0,0.5],[1,0.5]];portConstraint=eastwest;whiteSpace=wrap;html=1;" parent="Dkcpus8MpAZ2_VXcNwwd-27" vertex="1">
          <mxGeometry y="130" width="160" height="26" as="geometry" />
        </mxCell>
        <mxCell id="Dkcpus8MpAZ2_VXcNwwd-35" value="" style="line;strokeWidth=1;fillColor=none;align=left;verticalAlign=middle;spacingTop=-1;spacingLeft=3;spacingRight=3;rotatable=0;labelPosition=right;points=[];portConstraint=eastwest;strokeColor=inherit;" parent="Dkcpus8MpAZ2_VXcNwwd-27" vertex="1">
          <mxGeometry y="156" width="160" height="8" as="geometry" />
        </mxCell>
        <mxCell id="Dkcpus8MpAZ2_VXcNwwd-36" value="+&amp;nbsp;&amp;nbsp;seDeplacer()" style="text;strokeColor=none;fillColor=none;align=left;verticalAlign=top;spacingLeft=4;spacingRight=4;overflow=hidden;rotatable=0;points=[[0,0.5],[1,0.5]];portConstraint=eastwest;whiteSpace=wrap;html=1;" parent="Dkcpus8MpAZ2_VXcNwwd-27" vertex="1">
          <mxGeometry y="164" width="160" height="26" as="geometry" />
        </mxCell>
        <mxCell id="Dkcpus8MpAZ2_VXcNwwd-37" value="&lt;div&gt;+&amp;nbsp;subirDegats(degats: int)&lt;/div&gt;" style="text;strokeColor=none;fillColor=none;align=left;verticalAlign=top;spacingLeft=4;spacingRight=4;overflow=hidden;rotatable=0;points=[[0,0.5],[1,0.5]];portConstraint=eastwest;whiteSpace=wrap;html=1;" parent="Dkcpus8MpAZ2_VXcNwwd-27" vertex="1">
          <mxGeometry y="190" width="160" height="28" as="geometry" />
        </mxCell>
        <mxCell id="Dkcpus8MpAZ2_VXcNwwd-38" value="Vague" style="swimlane;fontStyle=1;align=center;verticalAlign=top;childLayout=stackLayout;horizontal=1;startSize=26;horizontalStack=0;resizeParent=1;resizeParentMax=0;resizeLast=0;collapsible=1;marginBottom=0;whiteSpace=wrap;html=1;" parent="1" vertex="1">
          <mxGeometry x="952" y="27" width="185" height="126" as="geometry" />
        </mxCell>
        <mxCell id="Dkcpus8MpAZ2_VXcNwwd-39" value="+&amp;nbsp;numero : int" style="text;strokeColor=none;fillColor=none;align=left;verticalAlign=top;spacingLeft=4;spacingRight=4;overflow=hidden;rotatable=0;points=[[0,0.5],[1,0.5]];portConstraint=eastwest;whiteSpace=wrap;html=1;" parent="Dkcpus8MpAZ2_VXcNwwd-38" vertex="1">
          <mxGeometry y="26" width="185" height="26" as="geometry" />
        </mxCell>
        <mxCell id="Dkcpus8MpAZ2_VXcNwwd-40" value="&lt;div&gt;+&amp;nbsp;listeMonstres : List&amp;lt;Monstre&amp;gt;&lt;/div&gt;" style="text;strokeColor=none;fillColor=none;align=left;verticalAlign=top;spacingLeft=4;spacingRight=4;overflow=hidden;rotatable=0;points=[[0,0.5],[1,0.5]];portConstraint=eastwest;whiteSpace=wrap;html=1;" parent="Dkcpus8MpAZ2_VXcNwwd-38" vertex="1">
          <mxGeometry y="52" width="185" height="26" as="geometry" />
        </mxCell>
        <mxCell id="Dkcpus8MpAZ2_VXcNwwd-42" value="" style="line;strokeWidth=1;fillColor=none;align=left;verticalAlign=middle;spacingTop=-1;spacingLeft=3;spacingRight=3;rotatable=0;labelPosition=right;points=[];portConstraint=eastwest;strokeColor=inherit;" parent="Dkcpus8MpAZ2_VXcNwwd-38" vertex="1">
          <mxGeometry y="78" width="185" height="8" as="geometry" />
        </mxCell>
        <mxCell id="Dkcpus8MpAZ2_VXcNwwd-45" value="&lt;div&gt;+&amp;nbsp;lancerVague()&lt;/div&gt;" style="text;strokeColor=none;fillColor=none;align=left;verticalAlign=top;spacingLeft=4;spacingRight=4;overflow=hidden;rotatable=0;points=[[0,0.5],[1,0.5]];portConstraint=eastwest;whiteSpace=wrap;html=1;" parent="Dkcpus8MpAZ2_VXcNwwd-38" vertex="1">
          <mxGeometry y="86" width="185" height="40" as="geometry" />
        </mxCell>
        <mxCell id="Dkcpus8MpAZ2_VXcNwwd-46" value="Terrain" style="swimlane;fontStyle=1;align=center;verticalAlign=top;childLayout=stackLayout;horizontal=1;startSize=26;horizontalStack=0;resizeParent=1;resizeParentMax=0;resizeLast=0;collapsible=1;marginBottom=0;whiteSpace=wrap;html=1;" parent="1" vertex="1">
          <mxGeometry x="400" y="-223" width="184" height="196" as="geometry" />
        </mxCell>
        <mxCell id="Dkcpus8MpAZ2_VXcNwwd-47" value="+&amp;nbsp;largeur : int" style="text;strokeColor=none;fillColor=none;align=left;verticalAlign=top;spacingLeft=4;spacingRight=4;overflow=hidden;rotatable=0;points=[[0,0.5],[1,0.5]];portConstraint=eastwest;whiteSpace=wrap;html=1;" parent="Dkcpus8MpAZ2_VXcNwwd-46" vertex="1">
          <mxGeometry y="26" width="184" height="26" as="geometry" />
        </mxCell>
        <mxCell id="Dkcpus8MpAZ2_VXcNwwd-48" value="&lt;div&gt;+&amp;nbsp;hauteur : int&lt;/div&gt;" style="text;strokeColor=none;fillColor=none;align=left;verticalAlign=top;spacingLeft=4;spacingRight=4;overflow=hidden;rotatable=0;points=[[0,0.5],[1,0.5]];portConstraint=eastwest;whiteSpace=wrap;html=1;" parent="Dkcpus8MpAZ2_VXcNwwd-46" vertex="1">
          <mxGeometry y="52" width="184" height="26" as="geometry" />
        </mxCell>
        <mxCell id="Dkcpus8MpAZ2_VXcNwwd-49" value="&lt;div&gt;+&amp;nbsp;listeTours : List&amp;lt;Tour&amp;gt;&lt;/div&gt;" style="text;strokeColor=none;fillColor=none;align=left;verticalAlign=top;spacingLeft=4;spacingRight=4;overflow=hidden;rotatable=0;points=[[0,0.5],[1,0.5]];portConstraint=eastwest;whiteSpace=wrap;html=1;" parent="Dkcpus8MpAZ2_VXcNwwd-46" vertex="1">
          <mxGeometry y="78" width="184" height="26" as="geometry" />
        </mxCell>
        <mxCell id="Dkcpus8MpAZ2_VXcNwwd-54" value="&lt;div&gt;+&amp;nbsp;listeMonstres : List&amp;lt;Monstre&amp;gt;&lt;/div&gt;" style="text;strokeColor=none;fillColor=none;align=left;verticalAlign=top;spacingLeft=4;spacingRight=4;overflow=hidden;rotatable=0;points=[[0,0.5],[1,0.5]];portConstraint=eastwest;whiteSpace=wrap;html=1;" parent="Dkcpus8MpAZ2_VXcNwwd-46" vertex="1">
          <mxGeometry y="104" width="184" height="26" as="geometry" />
        </mxCell>
        <mxCell id="Dkcpus8MpAZ2_VXcNwwd-50" value="" style="line;strokeWidth=1;fillColor=none;align=left;verticalAlign=middle;spacingTop=-1;spacingLeft=3;spacingRight=3;rotatable=0;labelPosition=right;points=[];portConstraint=eastwest;strokeColor=inherit;" parent="Dkcpus8MpAZ2_VXcNwwd-46" vertex="1">
          <mxGeometry y="130" width="184" height="8" as="geometry" />
        </mxCell>
        <mxCell id="Dkcpus8MpAZ2_VXcNwwd-51" value="+ ajouterTour(tour: Tour)&lt;div&gt;&lt;br&gt;&lt;/div&gt;" style="text;strokeColor=none;fillColor=none;align=left;verticalAlign=top;spacingLeft=4;spacingRight=4;overflow=hidden;rotatable=0;points=[[0,0.5],[1,0.5]];portConstraint=eastwest;whiteSpace=wrap;html=1;" parent="Dkcpus8MpAZ2_VXcNwwd-46" vertex="1">
          <mxGeometry y="138" width="184" height="30" as="geometry" />
        </mxCell>
        <mxCell id="Dkcpus8MpAZ2_VXcNwwd-52" value="&lt;div&gt;+&amp;nbsp;verifierChemin()&lt;/div&gt;" style="text;strokeColor=none;fillColor=none;align=left;verticalAlign=top;spacingLeft=4;spacingRight=4;overflow=hidden;rotatable=0;points=[[0,0.5],[1,0.5]];portConstraint=eastwest;whiteSpace=wrap;html=1;" parent="Dkcpus8MpAZ2_VXcNwwd-46" vertex="1">
          <mxGeometry y="168" width="184" height="28" as="geometry" />
        </mxCell>
        <mxCell id="Dkcpus8MpAZ2_VXcNwwd-55" value="Jeu" style="swimlane;fontStyle=1;align=center;verticalAlign=top;childLayout=stackLayout;horizontal=1;startSize=26;horizontalStack=0;resizeParent=1;resizeParentMax=0;resizeLast=0;collapsible=1;marginBottom=0;whiteSpace=wrap;html=1;" parent="1" vertex="1">
          <mxGeometry x="806" y="-264" width="160" height="193" as="geometry" />
        </mxCell>
        <mxCell id="Dkcpus8MpAZ2_VXcNwwd-56" value="+&amp;nbsp;joueur : Joueur&lt;div&gt;&lt;br&gt;&lt;/div&gt;" style="text;strokeColor=none;fillColor=none;align=left;verticalAlign=top;spacingLeft=4;spacingRight=4;overflow=hidden;rotatable=0;points=[[0,0.5],[1,0.5]];portConstraint=eastwest;whiteSpace=wrap;html=1;" parent="Dkcpus8MpAZ2_VXcNwwd-55" vertex="1">
          <mxGeometry y="26" width="160" height="26" as="geometry" />
        </mxCell>
        <mxCell id="Dkcpus8MpAZ2_VXcNwwd-57" value="&lt;div&gt;+&amp;nbsp;terrain: Terrain&lt;/div&gt;" style="text;strokeColor=none;fillColor=none;align=left;verticalAlign=top;spacingLeft=4;spacingRight=4;overflow=hidden;rotatable=0;points=[[0,0.5],[1,0.5]];portConstraint=eastwest;whiteSpace=wrap;html=1;" parent="Dkcpus8MpAZ2_VXcNwwd-55" vertex="1">
          <mxGeometry y="52" width="160" height="26" as="geometry" />
        </mxCell>
        <mxCell id="Dkcpus8MpAZ2_VXcNwwd-58" value="&lt;div&gt;+&amp;nbsp;vagues : List&amp;lt;Vague&amp;gt;&lt;/div&gt;" style="text;strokeColor=none;fillColor=none;align=left;verticalAlign=top;spacingLeft=4;spacingRight=4;overflow=hidden;rotatable=0;points=[[0,0.5],[1,0.5]];portConstraint=eastwest;whiteSpace=wrap;html=1;" parent="Dkcpus8MpAZ2_VXcNwwd-55" vertex="1">
          <mxGeometry y="78" width="160" height="26" as="geometry" />
        </mxCell>
        <mxCell id="Dkcpus8MpAZ2_VXcNwwd-59" value="" style="line;strokeWidth=1;fillColor=none;align=left;verticalAlign=middle;spacingTop=-1;spacingLeft=3;spacingRight=3;rotatable=0;labelPosition=right;points=[];portConstraint=eastwest;strokeColor=inherit;" parent="Dkcpus8MpAZ2_VXcNwwd-55" vertex="1">
          <mxGeometry y="104" width="160" height="8" as="geometry" />
        </mxCell>
        <mxCell id="Dkcpus8MpAZ2_VXcNwwd-60" value="+&amp;nbsp;demarrer()" style="text;strokeColor=none;fillColor=none;align=left;verticalAlign=top;spacingLeft=4;spacingRight=4;overflow=hidden;rotatable=0;points=[[0,0.5],[1,0.5]];portConstraint=eastwest;whiteSpace=wrap;html=1;" parent="Dkcpus8MpAZ2_VXcNwwd-55" vertex="1">
          <mxGeometry y="112" width="160" height="24" as="geometry" />
        </mxCell>
        <mxCell id="Dkcpus8MpAZ2_VXcNwwd-61" value="&lt;div&gt;+&amp;nbsp;finPartie()&lt;/div&gt;" style="text;strokeColor=none;fillColor=none;align=left;verticalAlign=top;spacingLeft=4;spacingRight=4;overflow=hidden;rotatable=0;points=[[0,0.5],[1,0.5]];portConstraint=eastwest;whiteSpace=wrap;html=1;" parent="Dkcpus8MpAZ2_VXcNwwd-55" vertex="1">
          <mxGeometry y="136" width="160" height="28" as="geometry" />
        </mxCell>
        <mxCell id="Dkcpus8MpAZ2_VXcNwwd-62" value="&lt;div&gt;+&amp;nbsp;afficherMenu()&lt;/div&gt;" style="text;strokeColor=none;fillColor=none;align=left;verticalAlign=top;spacingLeft=4;spacingRight=4;overflow=hidden;rotatable=0;points=[[0,0.5],[1,0.5]];portConstraint=eastwest;whiteSpace=wrap;html=1;" parent="Dkcpus8MpAZ2_VXcNwwd-55" vertex="1">
          <mxGeometry y="164" width="160" height="29" as="geometry" />
        </mxCell>
        <mxCell id="Dkcpus8MpAZ2_VXcNwwd-64" value="Classement" style="swimlane;fontStyle=1;align=center;verticalAlign=top;childLayout=stackLayout;horizontal=1;startSize=26;horizontalStack=0;resizeParent=1;resizeParentMax=0;resizeLast=0;collapsible=1;marginBottom=0;whiteSpace=wrap;html=1;" parent="1" vertex="1">
          <mxGeometry x="-49" y="353" width="185" height="131" as="geometry" />
        </mxCell>
        <mxCell id="Dkcpus8MpAZ2_VXcNwwd-65" value="+ scores : Map&amp;lt;Joueur, int&amp;gt;" style="text;strokeColor=none;fillColor=none;align=left;verticalAlign=top;spacingLeft=4;spacingRight=4;overflow=hidden;rotatable=0;points=[[0,0.5],[1,0.5]];portConstraint=eastwest;whiteSpace=wrap;html=1;" parent="Dkcpus8MpAZ2_VXcNwwd-64" vertex="1">
          <mxGeometry y="26" width="185" height="26" as="geometry" />
        </mxCell>
        <mxCell id="Dkcpus8MpAZ2_VXcNwwd-67" value="" style="line;strokeWidth=1;fillColor=none;align=left;verticalAlign=middle;spacingTop=-1;spacingLeft=3;spacingRight=3;rotatable=0;labelPosition=right;points=[];portConstraint=eastwest;strokeColor=inherit;" parent="Dkcpus8MpAZ2_VXcNwwd-64" vertex="1">
          <mxGeometry y="52" width="185" height="8" as="geometry" />
        </mxCell>
        <mxCell id="Dkcpus8MpAZ2_VXcNwwd-68" value="&lt;div&gt;+&amp;nbsp;enregistrerScore(joueur: Joueur, score: int)&lt;/div&gt;" style="text;strokeColor=none;fillColor=none;align=left;verticalAlign=top;spacingLeft=4;spacingRight=4;overflow=hidden;rotatable=0;points=[[0,0.5],[1,0.5]];portConstraint=eastwest;whiteSpace=wrap;html=1;" parent="Dkcpus8MpAZ2_VXcNwwd-64" vertex="1">
          <mxGeometry y="60" width="185" height="41" as="geometry" />
        </mxCell>
        <mxCell id="Dkcpus8MpAZ2_VXcNwwd-70" value="&lt;div&gt;+&amp;nbsp;afficherClassement()&lt;/div&gt;" style="text;strokeColor=none;fillColor=none;align=left;verticalAlign=top;spacingLeft=4;spacingRight=4;overflow=hidden;rotatable=0;points=[[0,0.5],[1,0.5]];portConstraint=eastwest;whiteSpace=wrap;html=1;" parent="Dkcpus8MpAZ2_VXcNwwd-64" vertex="1">
          <mxGeometry y="101" width="185" height="30" as="geometry" />
        </mxCell>
        <mxCell id="Dkcpus8MpAZ2_VXcNwwd-71" value="Position" style="swimlane;fontStyle=1;align=center;verticalAlign=top;childLayout=stackLayout;horizontal=1;startSize=26;horizontalStack=0;resizeParent=1;resizeParentMax=0;resizeLast=0;collapsible=1;marginBottom=0;whiteSpace=wrap;html=1;" parent="1" vertex="1">
          <mxGeometry x="487" y="8" width="171" height="86" as="geometry" />
        </mxCell>
        <mxCell id="Dkcpus8MpAZ2_VXcNwwd-72" value="+&amp;nbsp;x : int" style="text;strokeColor=none;fillColor=none;align=left;verticalAlign=top;spacingLeft=4;spacingRight=4;overflow=hidden;rotatable=0;points=[[0,0.5],[1,0.5]];portConstraint=eastwest;whiteSpace=wrap;html=1;" parent="Dkcpus8MpAZ2_VXcNwwd-71" vertex="1">
          <mxGeometry y="26" width="171" height="26" as="geometry" />
        </mxCell>
        <mxCell id="Dkcpus8MpAZ2_VXcNwwd-73" value="&lt;div&gt;+&amp;nbsp;y : int&lt;/div&gt;" style="text;strokeColor=none;fillColor=none;align=left;verticalAlign=top;spacingLeft=4;spacingRight=4;overflow=hidden;rotatable=0;points=[[0,0.5],[1,0.5]];portConstraint=eastwest;whiteSpace=wrap;html=1;" parent="Dkcpus8MpAZ2_VXcNwwd-71" vertex="1">
          <mxGeometry y="52" width="171" height="26" as="geometry" />
        </mxCell>
        <mxCell id="Dkcpus8MpAZ2_VXcNwwd-75" value="" style="line;strokeWidth=1;fillColor=none;align=left;verticalAlign=middle;spacingTop=-1;spacingLeft=3;spacingRight=3;rotatable=0;labelPosition=right;points=[];portConstraint=eastwest;strokeColor=inherit;" parent="Dkcpus8MpAZ2_VXcNwwd-71" vertex="1">
          <mxGeometry y="78" width="171" height="8" as="geometry" />
        </mxCell>
        <mxCell id="Dkcpus8MpAZ2_VXcNwwd-81" value="" style="endArrow=none;html=1;edgeStyle=orthogonalEdgeStyle;rounded=0;entryX=0;entryY=0.5;entryDx=0;entryDy=0;" parent="1" source="Dkcpus8MpAZ2_VXcNwwd-5" target="Dkcpus8MpAZ2_VXcNwwd-49" edge="1">
          <mxGeometry relative="1" as="geometry">
            <mxPoint x="-44" y="-31" as="sourcePoint" />
            <mxPoint x="90" y="-112" as="targetPoint" />
          </mxGeometry>
        </mxCell>
        <mxCell id="Dkcpus8MpAZ2_VXcNwwd-82" value="1...1" style="edgeLabel;resizable=0;html=1;align=left;verticalAlign=bottom;" parent="Dkcpus8MpAZ2_VXcNwwd-81" connectable="0" vertex="1">
          <mxGeometry x="-1" relative="1" as="geometry" />
        </mxCell>
        <mxCell id="Dkcpus8MpAZ2_VXcNwwd-83" value="1...1" style="edgeLabel;resizable=0;html=1;align=right;verticalAlign=bottom;" parent="Dkcpus8MpAZ2_VXcNwwd-81" connectable="0" vertex="1">
          <mxGeometry x="1" relative="1" as="geometry">
            <mxPoint x="-7" y="-1" as="offset" />
          </mxGeometry>
        </mxCell>
        <mxCell id="Dkcpus8MpAZ2_VXcNwwd-84" value="" style="endArrow=none;html=1;edgeStyle=orthogonalEdgeStyle;rounded=0;exitX=1.004;exitY=0.086;exitDx=0;exitDy=0;exitPerimeter=0;entryX=0.001;entryY=0.233;entryDx=0;entryDy=0;entryPerimeter=0;" parent="1" source="Dkcpus8MpAZ2_VXcNwwd-13" target="Dkcpus8MpAZ2_VXcNwwd-17" edge="1">
          <mxGeometry relative="1" as="geometry">
            <mxPoint x="112.63999999999987" y="163.0200000000001" as="sourcePoint" />
            <mxPoint x="269" y="175" as="targetPoint" />
            <Array as="points">
              <mxPoint x="207" y="183" />
              <mxPoint x="286" y="183" />
            </Array>
          </mxGeometry>
        </mxCell>
        <mxCell id="Dkcpus8MpAZ2_VXcNwwd-85" value="1...1" style="edgeLabel;resizable=0;html=1;align=left;verticalAlign=bottom;" parent="Dkcpus8MpAZ2_VXcNwwd-84" connectable="0" vertex="1">
          <mxGeometry x="-1" relative="1" as="geometry" />
        </mxCell>
        <mxCell id="Dkcpus8MpAZ2_VXcNwwd-87" value="" style="endArrow=none;html=1;edgeStyle=orthogonalEdgeStyle;rounded=0;entryX=0.479;entryY=1.02;entryDx=0;entryDy=0;entryPerimeter=0;exitX=0.436;exitY=-0.004;exitDx=0;exitDy=0;exitPerimeter=0;" parent="1" source="Dkcpus8MpAZ2_VXcNwwd-64" target="Dkcpus8MpAZ2_VXcNwwd-14" edge="1">
          <mxGeometry relative="1" as="geometry">
            <mxPoint x="33" y="386" as="sourcePoint" />
            <mxPoint x="289" y="252" as="targetPoint" />
          </mxGeometry>
        </mxCell>
        <mxCell id="Dkcpus8MpAZ2_VXcNwwd-88" value="1...1" style="edgeLabel;resizable=0;html=1;align=left;verticalAlign=bottom;" parent="Dkcpus8MpAZ2_VXcNwwd-87" connectable="0" vertex="1">
          <mxGeometry x="-1" relative="1" as="geometry" />
        </mxCell>
        <mxCell id="Dkcpus8MpAZ2_VXcNwwd-90" value="" style="endArrow=none;html=1;edgeStyle=orthogonalEdgeStyle;rounded=0;exitX=0;exitY=1;exitDx=0;exitDy=0;" parent="1" source="DsaMhqc7naq-9rM7gsF_-37" edge="1">
          <mxGeometry relative="1" as="geometry">
            <mxPoint x="425" y="252" as="sourcePoint" />
            <mxPoint x="487" y="55" as="targetPoint" />
            <Array as="points">
              <mxPoint x="115" y="55" />
            </Array>
          </mxGeometry>
        </mxCell>
        <mxCell id="Dkcpus8MpAZ2_VXcNwwd-92" value="1...1" style="edgeLabel;resizable=0;html=1;align=right;verticalAlign=bottom;" parent="Dkcpus8MpAZ2_VXcNwwd-90" connectable="0" vertex="1">
          <mxGeometry x="1" relative="1" as="geometry">
            <mxPoint x="-2" y="-4" as="offset" />
          </mxGeometry>
        </mxCell>
        <mxCell id="DsaMhqc7naq-9rM7gsF_-6" value="" style="endArrow=none;html=1;edgeStyle=orthogonalEdgeStyle;rounded=0;exitX=1.002;exitY=0.01;exitDx=0;exitDy=0;exitPerimeter=0;entryX=0.002;entryY=0.808;entryDx=0;entryDy=0;entryPerimeter=0;" edge="1" parent="1" source="Dkcpus8MpAZ2_VXcNwwd-18" target="Dkcpus8MpAZ2_VXcNwwd-29">
          <mxGeometry relative="1" as="geometry">
            <mxPoint x="430" y="411" as="sourcePoint" />
            <mxPoint x="657" y="308" as="targetPoint" />
            <Array as="points">
              <mxPoint x="659" y="308" />
            </Array>
          </mxGeometry>
        </mxCell>
        <mxCell id="DsaMhqc7naq-9rM7gsF_-7" value="0...*" style="edgeLabel;resizable=0;html=1;align=left;verticalAlign=bottom;" connectable="0" vertex="1" parent="DsaMhqc7naq-9rM7gsF_-6">
          <mxGeometry x="-1" relative="1" as="geometry" />
        </mxCell>
        <mxCell id="DsaMhqc7naq-9rM7gsF_-8" value="0...*" style="edgeLabel;resizable=0;html=1;align=right;verticalAlign=bottom;" connectable="0" vertex="1" parent="DsaMhqc7naq-9rM7gsF_-6">
          <mxGeometry x="1" relative="1" as="geometry">
            <mxPoint x="-3" y="-1" as="offset" />
          </mxGeometry>
        </mxCell>
        <mxCell id="DsaMhqc7naq-9rM7gsF_-9" value="" style="endArrow=none;html=1;edgeStyle=orthogonalEdgeStyle;rounded=0;exitX=0.587;exitY=-0.003;exitDx=0;exitDy=0;entryX=0;entryY=0.76;entryDx=0;entryDy=0;exitPerimeter=0;entryPerimeter=0;" edge="1" parent="1" source="Dkcpus8MpAZ2_VXcNwwd-15" target="Dkcpus8MpAZ2_VXcNwwd-73">
          <mxGeometry relative="1" as="geometry">
            <mxPoint x="406" y="315" as="sourcePoint" />
            <mxPoint x="630" y="314" as="targetPoint" />
            <Array as="points">
              <mxPoint x="380" y="80" />
            </Array>
          </mxGeometry>
        </mxCell>
        <mxCell id="DsaMhqc7naq-9rM7gsF_-10" value="1...1" style="edgeLabel;resizable=0;html=1;align=left;verticalAlign=bottom;" connectable="0" vertex="1" parent="DsaMhqc7naq-9rM7gsF_-9">
          <mxGeometry x="-1" relative="1" as="geometry" />
        </mxCell>
        <mxCell id="DsaMhqc7naq-9rM7gsF_-11" value="1...1" style="edgeLabel;resizable=0;html=1;align=right;verticalAlign=bottom;" connectable="0" vertex="1" parent="DsaMhqc7naq-9rM7gsF_-9">
          <mxGeometry x="1" relative="1" as="geometry">
            <mxPoint x="-3" as="offset" />
          </mxGeometry>
        </mxCell>
        <mxCell id="DsaMhqc7naq-9rM7gsF_-12" value="" style="endArrow=none;html=1;edgeStyle=orthogonalEdgeStyle;rounded=0;exitX=0.342;exitY=-0.001;exitDx=0;exitDy=0;exitPerimeter=0;" edge="1" parent="1" source="Dkcpus8MpAZ2_VXcNwwd-27">
          <mxGeometry relative="1" as="geometry">
            <mxPoint x="715" y="231" as="sourcePoint" />
            <mxPoint x="658" y="44" as="targetPoint" />
            <Array as="points">
              <mxPoint x="716" y="44" />
            </Array>
          </mxGeometry>
        </mxCell>
        <mxCell id="DsaMhqc7naq-9rM7gsF_-13" value="0...*" style="edgeLabel;resizable=0;html=1;align=left;verticalAlign=bottom;" connectable="0" vertex="1" parent="DsaMhqc7naq-9rM7gsF_-12">
          <mxGeometry x="-1" relative="1" as="geometry" />
        </mxCell>
        <mxCell id="DsaMhqc7naq-9rM7gsF_-14" value="1...1" style="edgeLabel;resizable=0;html=1;align=right;verticalAlign=bottom;" connectable="0" vertex="1" parent="DsaMhqc7naq-9rM7gsF_-12">
          <mxGeometry x="1" relative="1" as="geometry">
            <mxPoint x="25" y="-1" as="offset" />
          </mxGeometry>
        </mxCell>
        <mxCell id="DsaMhqc7naq-9rM7gsF_-15" value="" style="endArrow=none;html=1;edgeStyle=orthogonalEdgeStyle;rounded=0;exitX=1.003;exitY=0.836;exitDx=0;exitDy=0;exitPerimeter=0;entryX=0.595;entryY=1;entryDx=0;entryDy=0;entryPerimeter=0;" edge="1" parent="1" source="Dkcpus8MpAZ2_VXcNwwd-28" target="Dkcpus8MpAZ2_VXcNwwd-45">
          <mxGeometry relative="1" as="geometry">
            <mxPoint x="823" y="321" as="sourcePoint" />
            <mxPoint x="1067" y="142" as="targetPoint" />
          </mxGeometry>
        </mxCell>
        <mxCell id="DsaMhqc7naq-9rM7gsF_-16" value="0...*" style="edgeLabel;resizable=0;html=1;align=left;verticalAlign=bottom;" connectable="0" vertex="1" parent="DsaMhqc7naq-9rM7gsF_-15">
          <mxGeometry x="-1" relative="1" as="geometry" />
        </mxCell>
        <mxCell id="DsaMhqc7naq-9rM7gsF_-17" value="0...*" style="edgeLabel;resizable=0;html=1;align=right;verticalAlign=bottom;" connectable="0" vertex="1" parent="DsaMhqc7naq-9rM7gsF_-15">
          <mxGeometry x="1" relative="1" as="geometry">
            <mxPoint x="-3" y="23" as="offset" />
          </mxGeometry>
        </mxCell>
        <mxCell id="DsaMhqc7naq-9rM7gsF_-22" value="" style="endArrow=none;html=1;edgeStyle=orthogonalEdgeStyle;rounded=0;exitX=1;exitY=0.5;exitDx=0;exitDy=0;entryX=0.75;entryY=0;entryDx=0;entryDy=0;" edge="1" parent="1" source="Dkcpus8MpAZ2_VXcNwwd-51" target="Dkcpus8MpAZ2_VXcNwwd-27">
          <mxGeometry relative="1" as="geometry">
            <mxPoint x="414" y="-53" as="sourcePoint" />
            <mxPoint x="868" y="-53" as="targetPoint" />
          </mxGeometry>
        </mxCell>
        <mxCell id="DsaMhqc7naq-9rM7gsF_-23" value="1...1" style="edgeLabel;resizable=0;html=1;align=left;verticalAlign=bottom;" connectable="0" vertex="1" parent="DsaMhqc7naq-9rM7gsF_-22">
          <mxGeometry x="-1" relative="1" as="geometry" />
        </mxCell>
        <mxCell id="DsaMhqc7naq-9rM7gsF_-24" value="0...*" style="edgeLabel;resizable=0;html=1;align=right;verticalAlign=bottom;" connectable="0" vertex="1" parent="DsaMhqc7naq-9rM7gsF_-22">
          <mxGeometry x="1" relative="1" as="geometry">
            <mxPoint x="-2" as="offset" />
          </mxGeometry>
        </mxCell>
        <mxCell id="DsaMhqc7naq-9rM7gsF_-25" value="" style="endArrow=none;html=1;edgeStyle=orthogonalEdgeStyle;rounded=0;entryX=0.004;entryY=0.12;entryDx=0;entryDy=0;entryPerimeter=0;" edge="1" parent="1">
          <mxGeometry relative="1" as="geometry">
            <mxPoint x="584" y="-153" as="sourcePoint" />
            <mxPoint x="805.9999999999999" y="-151.12" as="targetPoint" />
            <Array as="points">
              <mxPoint x="806" y="-153" />
            </Array>
          </mxGeometry>
        </mxCell>
        <mxCell id="DsaMhqc7naq-9rM7gsF_-26" value="1...1" style="edgeLabel;resizable=0;html=1;align=left;verticalAlign=bottom;" connectable="0" vertex="1" parent="DsaMhqc7naq-9rM7gsF_-25">
          <mxGeometry x="-1" relative="1" as="geometry" />
        </mxCell>
        <mxCell id="DsaMhqc7naq-9rM7gsF_-27" value="1...1" style="edgeLabel;resizable=0;html=1;align=right;verticalAlign=bottom;" connectable="0" vertex="1" parent="DsaMhqc7naq-9rM7gsF_-25">
          <mxGeometry x="1" relative="1" as="geometry">
            <mxPoint x="-3" y="-2" as="offset" />
          </mxGeometry>
        </mxCell>
        <mxCell id="DsaMhqc7naq-9rM7gsF_-28" value="" style="endArrow=none;html=1;edgeStyle=orthogonalEdgeStyle;rounded=0;entryX=0.5;entryY=0;entryDx=0;entryDy=0;" edge="1" parent="1" target="Dkcpus8MpAZ2_VXcNwwd-38">
          <mxGeometry relative="1" as="geometry">
            <mxPoint x="967" y="-156" as="sourcePoint" />
            <mxPoint x="1179" y="-281" as="targetPoint" />
            <Array as="points">
              <mxPoint x="966" y="-156" />
              <mxPoint x="1045" y="-156" />
            </Array>
          </mxGeometry>
        </mxCell>
        <mxCell id="DsaMhqc7naq-9rM7gsF_-29" value="1...1" style="edgeLabel;resizable=0;html=1;align=left;verticalAlign=bottom;" connectable="0" vertex="1" parent="DsaMhqc7naq-9rM7gsF_-28">
          <mxGeometry x="-1" relative="1" as="geometry" />
        </mxCell>
        <mxCell id="DsaMhqc7naq-9rM7gsF_-30" value="0...*" style="edgeLabel;resizable=0;html=1;align=right;verticalAlign=bottom;" connectable="0" vertex="1" parent="DsaMhqc7naq-9rM7gsF_-28">
          <mxGeometry x="1" relative="1" as="geometry">
            <mxPoint x="-3" y="-3" as="offset" />
          </mxGeometry>
        </mxCell>
        <mxCell id="DsaMhqc7naq-9rM7gsF_-31" value="" style="endArrow=none;html=1;edgeStyle=orthogonalEdgeStyle;rounded=0;entryX=0.383;entryY=-0.001;entryDx=0;entryDy=0;entryPerimeter=0;exitX=-0.001;exitY=0.884;exitDx=0;exitDy=0;exitPerimeter=0;" edge="1" parent="1" source="Dkcpus8MpAZ2_VXcNwwd-54" target="Dkcpus8MpAZ2_VXcNwwd-15">
          <mxGeometry relative="1" as="geometry">
            <mxPoint x="399" y="-96" as="sourcePoint" />
            <mxPoint x="335" y="116" as="targetPoint" />
            <Array as="points">
              <mxPoint x="347" y="-96" />
            </Array>
          </mxGeometry>
        </mxCell>
        <mxCell id="DsaMhqc7naq-9rM7gsF_-32" value="1...1" style="edgeLabel;resizable=0;html=1;align=left;verticalAlign=bottom;" connectable="0" vertex="1" parent="DsaMhqc7naq-9rM7gsF_-31">
          <mxGeometry x="-1" relative="1" as="geometry">
            <mxPoint x="-26" as="offset" />
          </mxGeometry>
        </mxCell>
        <mxCell id="Dkcpus8MpAZ2_VXcNwwd-15" value="Tour" style="swimlane;fontStyle=1;align=center;verticalAlign=top;childLayout=stackLayout;horizontal=1;startSize=26;horizontalStack=0;resizeParent=1;resizeParentMax=0;resizeLast=0;collapsible=1;marginBottom=0;whiteSpace=wrap;html=1;" parent="1" vertex="1">
          <mxGeometry x="286" y="126" width="160" height="284" as="geometry" />
        </mxCell>
        <mxCell id="Dkcpus8MpAZ2_VXcNwwd-16" value="&lt;div&gt;+ type : String&lt;/div&gt;" style="text;strokeColor=none;fillColor=none;align=left;verticalAlign=top;spacingLeft=4;spacingRight=4;overflow=hidden;rotatable=0;points=[[0,0.5],[1,0.5]];portConstraint=eastwest;whiteSpace=wrap;html=1;" parent="Dkcpus8MpAZ2_VXcNwwd-15" vertex="1">
          <mxGeometry y="26" width="160" height="26" as="geometry" />
        </mxCell>
        <mxCell id="Dkcpus8MpAZ2_VXcNwwd-17" value="&lt;div&gt;+&amp;nbsp;niveau : int&lt;/div&gt;" style="text;strokeColor=none;fillColor=none;align=left;verticalAlign=top;spacingLeft=4;spacingRight=4;overflow=hidden;rotatable=0;points=[[0,0.5],[1,0.5]];portConstraint=eastwest;whiteSpace=wrap;html=1;" parent="Dkcpus8MpAZ2_VXcNwwd-15" vertex="1">
          <mxGeometry y="52" width="160" height="26" as="geometry" />
        </mxCell>
        <mxCell id="Dkcpus8MpAZ2_VXcNwwd-23" value="&lt;div&gt;+&amp;nbsp;position : Position&lt;/div&gt;" style="text;strokeColor=none;fillColor=none;align=left;verticalAlign=top;spacingLeft=4;spacingRight=4;overflow=hidden;rotatable=0;points=[[0,0.5],[1,0.5]];portConstraint=eastwest;whiteSpace=wrap;html=1;" parent="Dkcpus8MpAZ2_VXcNwwd-15" vertex="1">
          <mxGeometry y="78" width="160" height="26" as="geometry" />
        </mxCell>
        <mxCell id="Dkcpus8MpAZ2_VXcNwwd-24" value="&lt;div&gt;+&amp;nbsp;degats : int&lt;/div&gt;" style="text;strokeColor=none;fillColor=none;align=left;verticalAlign=top;spacingLeft=4;spacingRight=4;overflow=hidden;rotatable=0;points=[[0,0.5],[1,0.5]];portConstraint=eastwest;whiteSpace=wrap;html=1;" parent="Dkcpus8MpAZ2_VXcNwwd-15" vertex="1">
          <mxGeometry y="104" width="160" height="26" as="geometry" />
        </mxCell>
        <mxCell id="Dkcpus8MpAZ2_VXcNwwd-25" value="&lt;div&gt;+&amp;nbsp;effet : String&lt;/div&gt;" style="text;strokeColor=none;fillColor=none;align=left;verticalAlign=top;spacingLeft=4;spacingRight=4;overflow=hidden;rotatable=0;points=[[0,0.5],[1,0.5]];portConstraint=eastwest;whiteSpace=wrap;html=1;" parent="Dkcpus8MpAZ2_VXcNwwd-15" vertex="1">
          <mxGeometry y="130" width="160" height="26" as="geometry" />
        </mxCell>
        <mxCell id="Dkcpus8MpAZ2_VXcNwwd-26" value="&lt;div&gt;+&amp;nbsp;portee : int&lt;/div&gt;" style="text;strokeColor=none;fillColor=none;align=left;verticalAlign=top;spacingLeft=4;spacingRight=4;overflow=hidden;rotatable=0;points=[[0,0.5],[1,0.5]];portConstraint=eastwest;whiteSpace=wrap;html=1;" parent="Dkcpus8MpAZ2_VXcNwwd-15" vertex="1">
          <mxGeometry y="156" width="160" height="26" as="geometry" />
        </mxCell>
        <mxCell id="Dkcpus8MpAZ2_VXcNwwd-18" value="&lt;div&gt;+&amp;nbsp;prix : int&lt;/div&gt;" style="text;strokeColor=none;fillColor=none;align=left;verticalAlign=top;spacingLeft=4;spacingRight=4;overflow=hidden;rotatable=0;points=[[0,0.5],[1,0.5]];portConstraint=eastwest;whiteSpace=wrap;html=1;" parent="Dkcpus8MpAZ2_VXcNwwd-15" vertex="1">
          <mxGeometry y="182" width="160" height="26" as="geometry" />
        </mxCell>
        <mxCell id="Dkcpus8MpAZ2_VXcNwwd-19" value="" style="line;strokeWidth=1;fillColor=none;align=left;verticalAlign=middle;spacingTop=-1;spacingLeft=3;spacingRight=3;rotatable=0;labelPosition=right;points=[];portConstraint=eastwest;strokeColor=inherit;" parent="Dkcpus8MpAZ2_VXcNwwd-15" vertex="1">
          <mxGeometry y="208" width="160" height="8" as="geometry" />
        </mxCell>
        <mxCell id="Dkcpus8MpAZ2_VXcNwwd-20" value="+&amp;nbsp;&amp;nbsp;attaquer(monstre: Monstre)" style="text;strokeColor=none;fillColor=none;align=left;verticalAlign=top;spacingLeft=4;spacingRight=4;overflow=hidden;rotatable=0;points=[[0,0.5],[1,0.5]];portConstraint=eastwest;whiteSpace=wrap;html=1;" parent="Dkcpus8MpAZ2_VXcNwwd-15" vertex="1">
          <mxGeometry y="216" width="160" height="40" as="geometry" />
        </mxCell>
        <mxCell id="Dkcpus8MpAZ2_VXcNwwd-21" value="&lt;div&gt;+&amp;nbsp;ameliorer()&lt;/div&gt;" style="text;strokeColor=none;fillColor=none;align=left;verticalAlign=top;spacingLeft=4;spacingRight=4;overflow=hidden;rotatable=0;points=[[0,0.5],[1,0.5]];portConstraint=eastwest;whiteSpace=wrap;html=1;" parent="Dkcpus8MpAZ2_VXcNwwd-15" vertex="1">
          <mxGeometry y="256" width="160" height="28" as="geometry" />
        </mxCell>
        <mxCell id="DsaMhqc7naq-9rM7gsF_-34" value="&lt;font style=&quot;font-size: 11px;&quot;&gt;1...1&lt;/font&gt;" style="text;html=1;align=center;verticalAlign=middle;whiteSpace=wrap;rounded=0;" vertex="1" parent="1">
          <mxGeometry x="32" y="254" width="31" height="21" as="geometry" />
        </mxCell>
        <mxCell id="DsaMhqc7naq-9rM7gsF_-36" value="&lt;font style=&quot;font-size: 11px;&quot;&gt;0...*&lt;/font&gt;" style="text;html=1;align=center;verticalAlign=middle;whiteSpace=wrap;rounded=0;" vertex="1" parent="1">
          <mxGeometry x="255" y="163" width="31" height="21" as="geometry" />
        </mxCell>
        <mxCell id="DsaMhqc7naq-9rM7gsF_-37" value="&lt;font style=&quot;font-size: 11px;&quot;&gt;1...1&lt;/font&gt;" style="text;html=1;align=center;verticalAlign=middle;whiteSpace=wrap;rounded=0;" vertex="1" parent="1">
          <mxGeometry x="116" y="35" width="31" height="21" as="geometry" />
        </mxCell>
        <mxCell id="DsaMhqc7naq-9rM7gsF_-39" value="&lt;font style=&quot;font-size: 11px;&quot;&gt;0...*&lt;/font&gt;" style="text;html=1;align=center;verticalAlign=middle;whiteSpace=wrap;rounded=0;" vertex="1" parent="1">
          <mxGeometry x="312" y="105" width="31" height="21" as="geometry" />
        </mxCell>
      </root>
    </mxGraphModel>
  </diagram>
</mxfile>
